# xmcd
# Track frame offsets: 
#        183
#        11298
#        25460
#        35885
#        46220
#        57190
#        70045
#        81105
#        91448
#        103523
#        118223
#        126065
#        138575
#        149315
#        158960
#        168070
#        180005
#        192448
#        205395
#        219565
#        233263
#        244330
#        257863
#        272030
#        283330
#        294928
#        304660
#        313870
# Disc length: 4373 seconds
# Revision: 0
# Processed by: cddbd v1.4PL0 Copyright (c) Steve Scherf et al.
# Submitted via: ExactAudioCopy v0.90a9
#
DISCID=9711131c
DTITLE=J. B. Lenoir - 1951 - 1958
DYEAR=1900
DGENRE=
TTITLE0=Mama What about Your Daughter
TTITLE1=We Can't Go On this Way
TTITLE2=Give Me One More Shot
TTITLE3=Everybody Wants to Know
TTITLE4=J.B.'s Rock
TTITLE5=If You Love Me
TTITLE6=Low Down Dirty Shame
TTITLE7=Don't Touch My Head
TTITLE8=When I Am Drinking
TTITLE9=I've Been Down for So Long
TTITLE10=Five Years
TTITLE11=Daddy Don't Talk to Your Son
TTITLE12=I Don't Know
TTITLE13=Good Looking Woman
TTITLE14=Voodoo Boogie
TTITLE15=Carrie Lee
TTITLE16=Korea Blues
TTITLE17=Eisenhower Blues
TTITLE18=Man Watch Your Woman
TTITLE19=I'm In Korea
TTITLE20=Mama Talk to Your Daughter
TTITLE21=Sitting Down Thinking
TTITLE22=Don't Dog Your Woman
TTITLE23=Natural Man
TTITLE24=If I Give My Love to You
TTITLE25=Let Me Die with the One I Love
TTITLE26=Mama Your Daughter's Going to Miss Me
TTITLE27=What Have I Done
EXTD=Fan Club Records (France) FCD 117
EXTT0=
EXTT1=
EXTT2=
EXTT3=
EXTT4=
EXTT5=
EXTT6=
EXTT7=
EXTT8=
EXTT9=
EXTT10=
EXTT11=
EXTT12=
EXTT13=
EXTT14=
EXTT15=
EXTT16=
EXTT17=
EXTT18=
EXTT19=
EXTT20=
EXTT21=
EXTT22=
EXTT23=
EXTT24=
EXTT25=
EXTT26=
EXTT27=
PLAYORDER=
